<?xml version="1.0" encoding="UTF-8"?>
<svg id="Capa_2" data-name="Capa 2" xmlns="http://www.w3.org/2000/svg" viewBox="0 0 925.07 202.32">
  <defs>
    <style>
      .cls-1 {
        fill: #f9f5e9;
      }

      .cls-1, .cls-2, .cls-3 {
        stroke-width: 0px;
      }

      .cls-4 {
        font-family: UniversePersonalUse, 'Universe  Personal Use';
        font-size: 50px;
      }

      .cls-4, .cls-3 {
        fill: #ca1517;
      }

      .cls-5 {
        letter-spacing: .1em;
      }

      .cls-2 {
        fill: #1d1d1b;
      }

      .cls-6 {
        letter-spacing: -.05em;
      }
    </style>
  </defs>
  <g id="Capa_1-2" data-name="Capa 1">
    <g id="LOGO_ROJO_ALTERNATIVO" data-name="LOGO ROJO ALTERNATIVO">
      <text class="cls-4" transform="translate(287.17 191.99)"><tspan class="cls-5" x="0" y="0">EQUI</tspan><tspan class="cls-6" x="102.4" y="0">P</tspan><tspan class="cls-5" x="126.17" y="0">AMIENTOS</tspan></text>
      <g>
        <path class="cls-3" d="M300.89,52.61v7.86c.16,40.74-33.04,52.53-73.54,52.61-40.58-.08-73.78-11.87-73.62-52.61v-7.86C153.56,11.79,186.76.08,227.35,0c40.58,0,73.54,11.87,73.54,52.61ZM258.86,55.18c.24-17.56-14.36-20.77-31.52-21.01-17.24.24-31.84,3.45-31.6,21.01v2.65c-.24,17.64,14.36,20.85,31.6,21.09,17.16-.24,31.76-3.45,31.52-21.09v-2.65Z"/>
        <path class="cls-3" d="M383.81,44.35c30.08,1.52,72.34,3.61,72.26,30.64,0,30.8-35.29,38.1-73.14,38.1-37.77-.08-69.13-4.65-73.14-38.1h44.03c4.81,8.34,15.96,10.51,29.11,10.51s29.11-2.17,29.11-10.51c0-4.73-13.07-5.45-30-6.25-30.08-1.52-72.34-3.61-72.26-30.56,0-30.8,35.29-38.17,73.14-38.17,37.77.24,69.13,4.49,73.14,38.17h-44.03c-4.81-8.5-15.96-10.51-29.11-10.51s-29.11,1.92-29.11,10.51c0,4.73,13.07,5.37,30,6.18Z"/>
        <path class="cls-3" d="M610.53,65.76c-2.65,36.41-34.57,47.32-73.38,47.32-40.42-.08-73.78-11.79-73.62-52.61v-7.86c-.16-40.74,33.2-52.45,73.62-52.61,38.82.08,70.74,10.99,73.38,47.32h-43.07c-3.93-10.59-15.88-13.07-30.32-13.07-17.16.24-31.76,3.29-31.52,21.01v2.65c-.24,17.56,14.36,20.77,31.52,21.01,14.44,0,26.47-2.57,30.32-13.15h43.07Z"/>
        <path class="cls-3" d="M768.04,52.61v7.86c.16,40.74-33.04,52.53-73.54,52.61-40.58-.08-73.78-11.87-73.62-52.61v-7.86c-.16-40.82,33.04-52.53,73.62-52.61,40.58,0,73.54,11.87,73.54,52.61ZM726.02,55.18c.24-17.56-14.36-20.77-31.52-21.01-17.24.24-31.84,3.45-31.6,21.01v2.65c-.24,17.64,14.36,20.85,31.6,21.09,17.16-.24,31.76-3.45,31.52-21.09v-2.65Z"/>
        <path class="cls-3" d="M884.33,2.81c22.22-.24,41.06,18.45,40.74,40.74.32,22.22-18.53,41.06-40.74,40.74h-61.83v26.31h-42.03V2.81h103.86ZM873.82,52.69c2.49,0,4.65-.88,6.42-2.65,1.84-1.84,2.73-4.01,2.73-6.5s-.88-4.73-2.73-6.5c-1.76-1.84-3.93-2.73-6.42-2.73h-51.33v18.37h51.33Z"/>
      </g>
      <g id="N_nueva" data-name="N nueva">
        <polygon class="cls-3" points="0 1.44 0 110.72 42.84 110.72 42.84 45.56 3.27 1.44 0 1.44"/>
        <polyline class="cls-1" points="130.79 106.8 36.29 1.44 24.87 1.44 119.72 107.2"/>
        <polygon class="cls-3" points="19.65 1.44 11.48 1.44 109.5 110.72 117.67 110.72 19.65 1.44"/>
        <g>
          <polygon class="cls-3" points="7.14 1.44 3.27 1.44 42.84 45.56 42.84 41.24 7.14 1.44"/>
          <polygon class="cls-3" points="48.14 47.15 42.84 41.24 42.84 45.56 48.14 51.47 101.28 110.72 105.16 110.72 48.14 47.15"/>
        </g>
        <polygon class="cls-2" points="56.61 1.44 41.58 1.44 101.29 68.01 101.29 51.26 56.61 1.44"/>
        <polygon class="cls-3" points="144.13 1.44 101.29 1.44 101.29 51.26 101.29 68.01 101.29 110.72 139.6 110.72 142.74 110.72 144.13 110.72 144.13 99.02 144.13 1.44"/>
      </g>
    </g>
  </g>
</svg>