<?xml version="1.0" encoding="UTF-8"?>
<svg id="Capa_2" data-name="Capa 2" xmlns="http://www.w3.org/2000/svg" viewBox="0 0 925.05 202.32">
  <defs>
    <style>
      .cls-1 {
        fill: #000;
      }

      .cls-1, .cls-2, .cls-3 {
        stroke-width: 0px;
      }

      .cls-4 {
        font-family: UniversePersonalUse, 'Universe  Personal Use';
        font-size: 50px;
      }

      .cls-4, .cls-2 {
        fill: #f9f5e9;
      }

      .cls-5 {
        letter-spacing: .1em;
      }

      .cls-6 {
        letter-spacing: -.05em;
      }

      .cls-3 {
        fill: #ca1517;
      }
    </style>
  </defs>
  <g id="Capa_1-2" data-name="Capa 1">
    <g id="LOGO_BLANCO_ALTERNATIVO" data-name="LOGO BLANCO ALTERNATIVO">
      <text class="cls-4" transform="translate(287.15 191.99)"><tspan class="cls-5" x="0" y="0">EQUI</tspan><tspan class="cls-6" x="102.4" y="0">P</tspan><tspan class="cls-5" x="126.17" y="0">AMIENTOS</tspan></text>
      <g>
        <path class="cls-2" d="M300.87,52.61v7.86c.16,40.74-33.04,52.53-73.54,52.61-40.58-.08-73.78-11.87-73.62-52.61v-7.86C153.54,11.79,186.74.08,227.33,0c40.58,0,73.54,11.87,73.54,52.61ZM258.84,55.18c.24-17.56-14.36-20.77-31.52-21.01-17.24.24-31.84,3.45-31.6,21.01v2.65c-.24,17.64,14.36,20.85,31.6,21.09,17.16-.24,31.76-3.45,31.52-21.09v-2.65Z"/>
        <path class="cls-2" d="M383.79,44.35c30.08,1.52,72.34,3.61,72.26,30.64,0,30.8-35.29,38.1-73.14,38.1-37.77-.08-69.13-4.65-73.14-38.1h44.03c4.81,8.34,15.96,10.51,29.11,10.51s29.11-2.17,29.11-10.51c0-4.73-13.07-5.45-30-6.25-30.08-1.52-72.34-3.61-72.26-30.56,0-30.8,35.29-38.17,73.14-38.17,37.77.24,69.13,4.49,73.14,38.17h-44.03c-4.81-8.5-15.96-10.51-29.11-10.51s-29.11,1.92-29.11,10.51c0,4.73,13.07,5.37,30,6.18Z"/>
        <path class="cls-2" d="M610.51,65.76c-2.65,36.41-34.57,47.32-73.38,47.32-40.42-.08-73.78-11.79-73.62-52.61v-7.86c-.16-40.74,33.2-52.45,73.62-52.61,38.82.08,70.74,10.99,73.38,47.32h-43.07c-3.93-10.59-15.88-13.07-30.32-13.07-17.16.24-31.76,3.29-31.52,21.01v2.65c-.24,17.56,14.36,20.77,31.52,21.01,14.44,0,26.47-2.57,30.32-13.15h43.07Z"/>
        <path class="cls-2" d="M768.02,52.61v7.86c.16,40.74-33.04,52.53-73.54,52.61-40.58-.08-73.78-11.87-73.62-52.61v-7.86c-.16-40.82,33.04-52.53,73.62-52.61,40.58,0,73.54,11.87,73.54,52.61ZM726,55.18c.24-17.56-14.36-20.77-31.52-21.01-17.24.24-31.84,3.45-31.6,21.01v2.65c-.24,17.64,14.36,20.85,31.6,21.09,17.16-.24,31.76-3.45,31.52-21.09v-2.65Z"/>
        <path class="cls-2" d="M884.31,2.81c22.22-.24,41.06,18.45,40.74,40.74.32,22.22-18.53,41.06-40.74,40.74h-61.83v26.31h-42.03V2.81h103.86ZM873.8,52.69c2.49,0,4.65-.88,6.42-2.65,1.84-1.84,2.73-4.01,2.73-6.5s-.88-4.73-2.73-6.5c-1.76-1.84-3.93-2.73-6.42-2.73h-51.33v18.37h51.33Z"/>
      </g>
      <g id="N_nueva" data-name="N nueva">
        <polygon class="cls-2" points="0 1.52 0 110.79 42.83 110.79 42.83 45.63 3.27 1.52 0 1.52"/>
        <polygon class="cls-2" points="19.81 1.91 11.67 1.91 109.32 110.79 117.46 110.79 19.81 1.91"/>
        <polyline class="cls-1" points="128.4 104.22 36.29 1.52 24.87 1.52 117.46 104.76"/>
        <g>
          <polygon class="cls-2" points="7.14 1.52 3.27 1.52 42.83 45.63 42.83 41.32 7.14 1.52"/>
          <polygon class="cls-2" points="48.14 47.23 42.83 41.32 42.83 45.63 48.14 51.55 101.27 110.79 105.14 110.79 48.14 47.23"/>
        </g>
        <polygon class="cls-3" points="56.6 1.52 41.58 1.52 101.28 68.08 101.28 51.34 56.6 1.52"/>
        <polygon class="cls-2" points="144.11 1.52 101.28 1.52 101.28 51.34 101.28 68.08 101.28 110.79 139.58 110.79 142.72 110.79 144.11 110.79 144.11 99.09 144.11 1.52"/>
      </g>
    </g>
  </g>
</svg>